<svg width="34" height="22" viewBox="0 0 34 22" fill="none" xmlns="http://www.w3.org/2000/svg">
<path d="M22.4261 5.43274L17.5806 3.97899C17.2169 3.87047 16.843 3.83226 16.4726 3.84579V3.83332H10.5833L0.139648 0.362793L0.171223 15.0377L3.1692 16.5363L4.94426 12.1968L7.53734 13.2343L8.20969 11.5539L9.18345 12.5277L8.27496 13.4364C7.95921 13.7522 7.77826 14.1889 7.77826 14.6357C7.77826 15.5501 8.50739 16.2935 9.41429 16.3256C9.44586 17.2118 10.1583 17.9243 11.0445 17.9558C11.0761 18.842 11.7885 19.5544 12.6747 19.586C12.7073 20.4929 13.4502 21.222 14.3648 21.222C14.8114 21.222 15.2484 21.0411 15.5639 20.7253L16.4726 19.8169L16.8377 20.182C17.1535 20.4977 17.5902 20.6787 18.037 20.6787C18.9516 20.6787 19.6948 19.9495 19.7269 19.0426C20.6131 19.011 21.3255 18.2986 21.3571 17.4124C22.2433 17.3809 22.9557 16.6684 22.9873 15.7822C23.8942 15.7496 24.6236 15.0067 24.6236 14.0923C24.6236 14.0151 24.6111 13.939 24.6008 13.8623L25.3806 13.0825L26.0107 14.3433L29.424 12.6365L31.4866 16.5745L33.8613 14.9921V0.947317L22.4261 5.43274ZM2.60616 15.0398L1.25696 14.3651L1.22963 1.87014L7.18418 3.84924L2.60616 15.0398ZM6.93212 11.8214L5.35526 11.1909L8.21791 4.19258L9.77567 4.71051L6.93212 11.8214ZM8.86506 14.6357C8.86506 14.4752 8.92953 14.3184 9.04309 14.2046L9.99855 13.2494C10.1121 13.1358 10.2692 13.0711 10.4294 13.0711C10.7654 13.0711 11.0386 13.3446 11.0386 13.6803C11.0386 13.8405 10.9739 13.9976 10.8603 14.1112L9.90515 15.0666C9.79159 15.1802 9.63451 15.2447 9.47425 15.2447C9.13835 15.2447 8.86506 14.9714 8.86506 14.6357ZM10.4952 16.2659C10.4952 16.1054 10.5597 15.9486 10.6733 15.8348L11.6287 14.8796C11.7423 14.766 11.8994 14.7013 12.0596 14.7013C12.3955 14.7013 12.6688 14.9748 12.6688 15.3105C12.6688 15.4707 12.6041 15.6278 12.4905 15.7414L11.5353 16.6968C11.4218 16.8104 11.2647 16.8749 11.1044 16.8749C10.7685 16.8749 10.4952 16.6016 10.4952 16.2659ZM12.1254 17.8961C12.1254 17.7356 12.1899 17.5788 12.3035 17.465L13.2589 16.5098C13.3725 16.3962 13.5296 16.3315 13.6898 16.3315C14.0257 16.3315 14.299 16.605 14.299 16.9407C14.299 17.1009 14.2343 17.258 14.1207 17.3716L13.1655 18.327C13.052 18.4406 12.8949 18.5051 12.7346 18.5051C12.3987 18.5051 12.1254 18.2318 12.1254 17.8961ZM15.7509 19.0018L14.7957 19.9572C14.6822 20.0708 14.5251 20.1353 14.3648 20.1353C14.0289 20.1353 13.7556 19.862 13.7556 19.5263C13.7556 19.3658 13.8201 19.209 13.9337 19.0952L14.8891 18.14C15.0027 18.0264 15.1598 17.9617 15.32 17.9617C15.6559 17.9617 15.9292 18.2352 15.9292 18.5709C15.9292 18.7311 15.8645 18.8882 15.7509 19.0018ZM22.9276 14.7013C22.7673 14.7013 22.6103 14.6368 22.4967 14.5232L17.9436 9.9699L17.1752 10.7383L21.7283 15.2914C21.8419 15.4052 21.9066 15.562 21.9066 15.7225C21.9066 16.0582 21.6333 16.3315 21.2974 16.3315C21.1371 16.3315 20.9801 16.267 20.8665 16.1534L16.3134 11.6001L15.545 12.3685L20.0981 16.9216C20.2117 17.0354 20.2764 17.1922 20.2764 17.3527C20.2764 17.6884 20.0031 17.9617 19.6672 17.9617C19.5069 17.9617 19.3499 17.8972 19.2363 17.7836L14.6832 13.2303L13.9148 13.9987L18.4679 18.5518C18.5815 18.6656 18.6462 18.8224 18.6462 18.9829C18.6462 19.3186 18.3729 19.5919 18.037 19.5919C17.8768 19.5919 17.7197 19.5274 17.6061 19.4138L16.9932 18.8006C17.0041 18.7248 17.016 18.6486 17.016 18.5709C17.016 17.6563 16.2866 16.9131 15.3797 16.881C15.3482 15.9948 14.6357 15.2824 13.7495 15.2508C13.718 14.3646 13.0055 13.6522 12.1193 13.6206C12.0867 12.7137 11.344 11.9843 10.4294 11.9843C10.3522 11.9843 10.2761 11.9968 10.1997 12.0071L8.64828 10.4557L10.863 4.92012H14.074L12.0787 6.91567C11.758 7.23566 11.582 7.66178 11.582 8.11497C11.582 9.04999 12.3427 9.8107 13.278 9.8107C13.7246 9.8107 14.1616 9.62974 14.4771 9.314L15.9168 7.87405C16.2113 7.58059 16.73 7.56918 17.0367 7.85017L18.3071 9.0147C18.7293 9.40156 19.1984 9.7234 19.7004 9.97547L23.3585 13.6612C23.4721 13.775 23.5368 13.9318 23.5368 14.0923C23.5368 14.428 23.2635 14.7013 22.9276 14.7013ZM24.0802 12.8461L21.8466 10.5955C22.0462 10.6144 22.2473 10.6258 22.45 10.6258V9.539C21.1849 9.539 19.9742 9.06804 19.0418 8.21314L17.7712 7.04913C17.054 6.39058 15.8374 6.41685 15.1489 7.10618L13.7095 8.54586C13.5954 8.6589 13.4383 8.7239 13.278 8.7239C12.9421 8.7239 12.6688 8.45061 12.6688 8.11497C12.6688 7.95179 12.7317 7.79922 12.8469 7.6838L14.9183 5.61263C15.527 5.00396 16.441 4.77233 17.2681 5.02015L22.0685 6.4601L24.8674 12.0588L24.0802 12.8461ZM26.4966 12.8854L23.2019 6.29559L25.6082 5.35154L28.9196 11.6736L26.4966 12.8854ZM32.7746 14.4107L31.8886 15.0014L26.626 4.95275L32.7746 2.54116V14.4107Z" fill="#E3B873"/>
</svg>
